<svg xmlns="http://www.w3.org/2000/svg" viewBox="0 0 256 256" width="256" height="256">
  <rect width="256" height="256" fill="none"/>

  <!-- 脸 -->
  <ellipse cx="128" cy="146" rx="82" ry="78" fill="#FF7B54"/>

  <!-- 左耳 -->
  <polygon points="64,110 46,44 104,90" fill="#FF7B54"/>
  <polygon points="68,104 56,58 96,90" fill="#FFB58F"/>
  <!-- 右耳 -->
  <polygon points="192,110 210,44 152,90" fill="#FF7B54"/>
  <polygon points="188,104 200,58 160,90" fill="#FFB58F"/>

  <!-- 左眼 -->
  <ellipse cx="98" cy="138" rx="14" ry="16" fill="#2D1B0E"/>
  <ellipse cx="94" cy="132" rx="5" ry="6" fill="#FFFFFF"/>
  <!-- 右眼 -->
  <ellipse cx="158" cy="138" rx="14" ry="16" fill="#2D1B0E"/>
  <ellipse cx="154" cy="132" rx="5" ry="6" fill="#FFFFFF"/>

  <!-- 鼻子 -->
  <polygon points="128,160 121,172 135,172" fill="#FF4E6A"/>
  <!-- 嘴 -->
  <path d="M128,172 Q116,186 108,182" stroke="#2D1B0E" stroke-width="3" fill="none" stroke-linecap="round"/>
  <path d="M128,172 Q140,186 148,182" stroke="#2D1B0E" stroke-width="3" fill="none" stroke-linecap="round"/>

  <!-- 左腮红 -->
  <ellipse cx="72" cy="165" rx="14" ry="10" fill="#FFB58F" opacity="0.6"/>
  <!-- 右腮红 -->
  <ellipse cx="184" cy="165" rx="14" ry="10" fill="#FFB58F" opacity="0.6"/>

  <!-- 左胡须 -->
  <line x1="50" y1="152" x2="90" y2="158" stroke="#2D1B0E" stroke-width="2.5" stroke-linecap="round"/>
  <line x1="48" y1="164" x2="90" y2="166" stroke="#2D1B0E" stroke-width="2.5" stroke-linecap="round"/>
  <line x1="52" y1="176" x2="90" y2="174" stroke="#2D1B0E" stroke-width="2.5" stroke-linecap="round"/>

  <!-- 右胡须 -->
  <line x1="206" y1="152" x2="166" y2="158" stroke="#2D1B0E" stroke-width="2.5" stroke-linecap="round"/>
  <line x1="208" y1="164" x2="166" y2="166" stroke="#2D1B0E" stroke-width="2.5" stroke-linecap="round"/>
  <line x1="204" y1="176" x2="166" y2="174" stroke="#2D1B0E" stroke-width="2.5" stroke-linecap="round"/>
</svg>
